<?xml version="1.0" encoding="utf-8"?>
<!-- Generator: Adobe Illustrator 25.2.3, SVG Export Plug-In . SVG Version: 6.00 Build 0)  -->
<svg version="1.1" id="Ebene_1" xmlns="http://www.w3.org/2000/svg" xmlns:xlink="http://www.w3.org/1999/xlink" x="0px" y="0px"
	 viewBox="0 0 151.15 56.91" style="enable-background:new 0 0 151.15 56.91;" xml:space="preserve">
<style type="text/css">
	.st0{fill:#35A9E1;}
	.st1{fill:#1E3464;}
</style>
<g>
	<g>
		<g>
			<path class="st0" d="M78.4,24.56v2.7h3.38v1.39H78.4v4.03h-1.67v-9.51h5.68v1.4H78.4z"/>
			<path class="st0" d="M83.64,32.68v-9.51h1.67v9.51H83.64z"/>
			<path class="st0" d="M87.44,32.68v-9.51h2.89c3.15,0,5.19,1.94,5.19,4.76c0,2.83-2.02,4.76-5.15,4.76H87.44z M89.11,24.56v6.71
				h1.26c2.13,0,3.49-1.39,3.49-3.36c0-1.96-1.36-3.36-3.53-3.36H89.11z"/>
		</g>
		<g>
			<path class="st1" d="M76.73,39.69v-3.58h0.63v3.05h1.46v0.53H76.73z"/>
			<path class="st1" d="M79.68,36.14c0.21,0,0.35,0.13,0.35,0.34c0,0.2-0.14,0.34-0.35,0.34c-0.21,0-0.35-0.13-0.35-0.34
				C79.33,36.28,79.46,36.14,79.68,36.14z M79.98,37.2v2.49h-0.61V37.2H79.98z"/>
			<path class="st1" d="M80.84,36.11h0.61v1.23c0,0.13-0.02,0.2-0.02,0.2h0.01c0.13-0.21,0.44-0.41,0.82-0.41
				c0.64,0,1.14,0.51,1.14,1.31c0,0.79-0.51,1.31-1.15,1.31c-0.39,0-0.73-0.23-0.85-0.5H81.4c0,0,0.02,0.07,0.01,0.17l-0.01,0.26
				h-0.56V36.11z M81.46,38.44c0,0.54,0.35,0.79,0.69,0.79c0.4,0,0.68-0.33,0.68-0.79c0-0.47-0.28-0.79-0.68-0.79
				C81.82,37.65,81.46,37.91,81.46,38.44z"/>
			<path class="st1" d="M84.09,37.2h0.56c0,0.1,0.01,0.2,0.01,0.29c0,0.08,0,0.15,0,0.17c0.15-0.3,0.41-0.53,0.76-0.53
				c0.07,0,0.14,0.01,0.15,0.01v0.59c-0.02,0-0.07-0.02-0.15-0.02c-0.43,0-0.72,0.43-0.72,0.9v1.07h-0.61V37.2z"/>
			<path class="st1" d="M86.12,37.31c0.14-0.07,0.47-0.18,0.9-0.18c0.74,0,1.1,0.35,1.1,0.97v1.58h-0.55l-0.01-0.26
				c0-0.11,0.01-0.19,0.01-0.19h-0.01c-0.04,0.11-0.31,0.51-0.82,0.51c-0.44,0-0.79-0.26-0.79-0.74c0-0.61,0.6-0.91,1.57-0.78v-0.09
				c0-0.36-0.23-0.49-0.59-0.49c-0.33,0-0.64,0.11-0.8,0.21V37.31z M87.5,38.59c-0.68-0.11-0.97,0.08-0.97,0.37
				c0,0.19,0.13,0.32,0.34,0.32C87.23,39.28,87.5,38.94,87.5,38.59z"/>
			<path class="st1" d="M88.92,37.2h0.56c0,0.1,0.01,0.2,0.01,0.29c0,0.08,0,0.15,0,0.17c0.15-0.3,0.41-0.53,0.76-0.53
				c0.07,0,0.14,0.01,0.15,0.01v0.59c-0.02,0-0.07-0.02-0.15-0.02c-0.43,0-0.72,0.43-0.72,0.9v1.07h-0.61V37.2z"/>
			<path class="st1" d="M90.79,40.27c0.05,0.01,0.15,0.04,0.28,0.04c0.36,0,0.54-0.27,0.71-0.64l-1.03-2.47h0.66l0.32,0.88
				c0.12,0.33,0.25,0.67,0.36,1c0.09-0.21,0.26-0.76,0.36-1l0.31-0.88h0.66l-0.97,2.42c-0.28,0.71-0.59,1.1-1.08,1.2
				c-0.1,0.02-0.2,0.02-0.3,0.02c-0.12,0-0.23-0.02-0.28-0.04V40.27z"/>
			<path class="st1" d="M97.51,38.44c0,0.75-0.55,1.31-1.3,1.31c-0.75,0-1.3-0.56-1.3-1.31c0-0.75,0.55-1.31,1.3-1.31
				C96.96,37.14,97.51,37.69,97.51,38.44z M96.93,38.44c0-0.47-0.31-0.79-0.73-0.79c-0.41,0-0.73,0.32-0.73,0.79
				c0,0.47,0.31,0.79,0.73,0.79C96.63,39.23,96.93,38.91,96.93,38.44z"/>
			<path class="st1" d="M98.28,37.2v-0.25c0-0.55,0.35-0.91,0.96-0.91c0.15,0,0.28,0.02,0.32,0.03v0.52
				c-0.04-0.01-0.13-0.03-0.25-0.03c-0.28,0-0.47,0.16-0.47,0.45v0.19h0.62v0.48h-0.6v2h-0.61v-2h-0.34V37.2H98.28z"/>
			<path class="st1" d="M102.5,36.05h0.02l1.7,3.64h-0.66l-0.32-0.71h-1.46l-0.32,0.71h-0.66L102.5,36.05z M103.04,38.51
				c-0.2-0.46-0.37-0.86-0.52-1.27c-0.15,0.37-0.34,0.83-0.53,1.27H103.04z"/>
			<path class="st1" d="M105.29,37.2l0.02,0.32c0,0.09-0.02,0.16-0.02,0.18h0.01c0.1-0.23,0.43-0.56,0.9-0.56
				c0.59,0,0.86,0.35,0.86,1v1.56h-0.61v-1.45c0-0.29-0.07-0.55-0.41-0.55c-0.41,0-0.71,0.33-0.71,0.77v1.23h-0.61V37.2H105.29z"/>
			<path class="st1" d="M109.05,39.28c0.65,0.08,0.99,0.27,0.99,0.72c0,0.5-0.51,0.8-1.25,0.8c-0.68,0-1.17-0.22-1.17-0.66
				c0-0.29,0.29-0.52,0.66-0.6c-0.22-0.03-0.37-0.15-0.37-0.33c0-0.15,0.13-0.3,0.37-0.37c-0.35-0.13-0.59-0.43-0.59-0.81
				c0-0.54,0.46-0.9,1.04-0.9c0.15,0,0.29,0.02,0.41,0.06h0.92v0.44h-0.32c-0.11,0-0.12-0.01-0.14-0.02
				c0.1,0.11,0.16,0.25,0.16,0.41c0,0.49-0.38,0.82-0.89,0.87c-0.22,0.02-0.39,0.1-0.39,0.18C108.5,39.2,108.66,39.23,109.05,39.28z
				 M109.44,40.05c0-0.21-0.18-0.35-0.67-0.35c-0.33,0-0.57,0.16-0.57,0.36c0,0.23,0.25,0.34,0.6,0.34
				C109.18,40.4,109.44,40.26,109.44,40.05z M109.23,38.05c0-0.27-0.19-0.47-0.49-0.47c-0.29,0-0.49,0.2-0.49,0.47
				s0.2,0.46,0.49,0.46C109.03,38.51,109.23,38.31,109.23,38.05z"/>
			<path class="st1" d="M110.63,36.11h0.61v2.78c0,0.25,0.09,0.34,0.27,0.34c0.1,0,0.19-0.02,0.23-0.04v0.51
				c-0.05,0.02-0.2,0.06-0.4,0.06c-0.4,0-0.71-0.2-0.71-0.74V36.11z"/>
			<path class="st1" d="M114.74,38.44c0,0.75-0.55,1.31-1.3,1.31c-0.75,0-1.3-0.56-1.3-1.31c0-0.75,0.55-1.31,1.3-1.31
				C114.19,37.14,114.74,37.69,114.74,38.44z M114.16,38.44c0-0.47-0.31-0.79-0.73-0.79c-0.41,0-0.73,0.32-0.73,0.79
				c0,0.47,0.31,0.79,0.73,0.79C113.85,39.23,114.16,38.91,114.16,38.44z"/>
			<path class="st1" d="M115.32,38.04h1.55v0.48h-1.55V38.04z"/>
			<path class="st1" d="M118.79,36.05h0.02l1.7,3.64h-0.66l-0.32-0.71h-1.46l-0.32,0.71h-0.66L118.79,36.05z M119.33,38.51
				c-0.2-0.46-0.37-0.86-0.52-1.27c-0.15,0.37-0.34,0.83-0.53,1.27H119.33z"/>
			<path class="st1" d="M121.58,37.2l0.02,0.32c0,0.09-0.02,0.16-0.02,0.18h0.01c0.12-0.3,0.44-0.53,0.81-0.55
				c0.08,0,0.17,0,0.25,0.02c0.26,0.06,0.47,0.22,0.55,0.5c0.17-0.29,0.49-0.53,0.85-0.53c0.58,0,0.87,0.35,0.87,1v1.56h-0.61v-1.46
				c0-0.29-0.08-0.54-0.39-0.54c-0.48,0-0.64,0.44-0.64,0.88v1.12h-0.61v-1.46c0-0.28-0.06-0.54-0.38-0.54
				c-0.47,0-0.65,0.44-0.65,0.88v1.12h-0.61V37.2H121.58z"/>
			<path class="st1" d="M127.95,38.3c0,0.11-0.01,0.22-0.01,0.27h-1.74c0.02,0.42,0.31,0.67,0.77,0.67c0.35,0,0.71-0.1,0.88-0.21
				v0.53c-0.17,0.09-0.51,0.19-0.93,0.19c-0.83,0-1.36-0.54-1.36-1.31c0-0.75,0.54-1.31,1.24-1.31
				C127.56,37.14,127.95,37.68,127.95,38.3z M126.8,37.62c-0.36,0-0.57,0.28-0.6,0.59h1.16C127.37,37.9,127.17,37.62,126.8,37.62z"
				/>
			<path class="st1" d="M128.64,37.2h0.56c0,0.1,0.01,0.2,0.01,0.29c0,0.08,0,0.15,0,0.17c0.15-0.3,0.41-0.53,0.76-0.53
				c0.07,0,0.14,0.01,0.15,0.01v0.59c-0.02,0-0.07-0.02-0.15-0.02c-0.43,0-0.72,0.43-0.72,0.9v1.07h-0.61V37.2z"/>
			<path class="st1" d="M131,36.14c0.21,0,0.35,0.13,0.35,0.34c0,0.2-0.14,0.34-0.35,0.34c-0.21,0-0.35-0.13-0.35-0.34
				C130.65,36.28,130.79,36.14,131,36.14z M131.31,37.2v2.49h-0.61V37.2H131.31z"/>
			<path class="st1" d="M133.37,39.22c0.32,0,0.58-0.13,0.71-0.21v0.55c-0.12,0.06-0.38,0.19-0.77,0.19c-0.78,0-1.31-0.56-1.31-1.31
				c0-0.75,0.53-1.31,1.31-1.31c0.39,0,0.63,0.12,0.76,0.19v0.56c-0.15-0.1-0.4-0.21-0.69-0.21c-0.45,0-0.76,0.31-0.76,0.78
				C132.61,38.91,132.91,39.22,133.37,39.22z"/>
			<path class="st1" d="M134.77,37.31c0.14-0.07,0.47-0.18,0.9-0.18c0.74,0,1.1,0.35,1.1,0.97v1.58h-0.55l-0.01-0.26
				c0-0.11,0.01-0.19,0.01-0.19h-0.01c-0.04,0.11-0.31,0.51-0.82,0.51c-0.44,0-0.79-0.26-0.79-0.74c0-0.61,0.6-0.91,1.57-0.78v-0.09
				c0-0.36-0.23-0.49-0.59-0.49c-0.33,0-0.64,0.11-0.8,0.21V37.31z M136.14,38.59c-0.68-0.11-0.97,0.08-0.97,0.37
				c0,0.19,0.13,0.32,0.34,0.32C135.87,39.28,136.14,38.94,136.14,38.59z"/>
			<path class="st1" d="M138.13,37.2l0.02,0.32c0,0.09-0.02,0.16-0.02,0.18h0.01c0.1-0.23,0.43-0.56,0.9-0.56
				c0.59,0,0.86,0.35,0.86,1v1.56h-0.61v-1.45c0-0.29-0.07-0.55-0.41-0.55c-0.41,0-0.71,0.33-0.71,0.77v1.23h-0.61V37.2H138.13z"/>
			<path class="st1" d="M79.42,42.85c-0.22-0.11-0.58-0.26-1.02-0.26c-0.77,0-1.29,0.56-1.29,1.28c0,0.72,0.52,1.28,1.27,1.28
				c0.48,0,0.84-0.14,1.06-0.25v0.58c-0.15,0.08-0.56,0.25-1.09,0.25c-1.08,0-1.88-0.8-1.88-1.86c0-1.05,0.8-1.86,1.9-1.86
				c0.52,0,0.9,0.17,1.05,0.25V42.85z"/>
			<path class="st1" d="M81.76,45.66l-0.02-0.31c0-0.1,0.02-0.16,0.02-0.18h-0.01c-0.1,0.23-0.42,0.56-0.89,0.56
				c-0.58,0-0.86-0.35-0.86-1v-1.56h0.61v1.45c0,0.29,0.06,0.55,0.4,0.55c0.4,0,0.69-0.33,0.69-0.77v-1.23h0.6v2.49H81.76z"/>
			<path class="st1" d="M83.18,42.08h0.61v2.78c0,0.25,0.09,0.34,0.27,0.34c0.1,0,0.19-0.02,0.23-0.04v0.51
				c-0.05,0.02-0.2,0.06-0.4,0.06c-0.4,0-0.71-0.2-0.71-0.74V42.08z"/>
			<path class="st1" d="M84.89,43.17v-0.75h0.59v0.75h0.71v0.48h-0.71v1.14c0,0.31,0.16,0.41,0.34,0.41c0.15,0,0.32-0.05,0.45-0.1
				v0.51c-0.11,0.06-0.33,0.11-0.6,0.11c-0.38,0-0.76-0.18-0.79-0.72c0-0.08-0.01-0.16-0.01-0.25v-1.1h-0.38v-0.48H84.89z"/>
			<path class="st1" d="M88.54,45.66l-0.02-0.31c0-0.1,0.02-0.16,0.02-0.18h-0.01c-0.1,0.23-0.42,0.56-0.89,0.56
				c-0.58,0-0.86-0.35-0.86-1v-1.56h0.61v1.45c0,0.29,0.06,0.55,0.4,0.55c0.4,0,0.69-0.33,0.69-0.77v-1.23h0.6v2.49H88.54z"/>
			<path class="st1" d="M89.94,43.17h0.56c0,0.1,0.01,0.2,0.01,0.29c0,0.08,0,0.15,0,0.17c0.15-0.3,0.41-0.53,0.76-0.53
				c0.07,0,0.14,0.01,0.15,0.01v0.59c-0.02,0-0.07-0.02-0.15-0.02c-0.43,0-0.72,0.43-0.72,0.9v1.07h-0.61V43.17z"/>
			<path class="st1" d="M94.21,44.27c0,0.11-0.01,0.22-0.01,0.27h-1.74c0.02,0.42,0.31,0.67,0.77,0.67c0.35,0,0.71-0.1,0.88-0.21
				v0.53c-0.17,0.09-0.51,0.19-0.93,0.19c-0.83,0-1.36-0.54-1.36-1.31c0-0.75,0.54-1.31,1.24-1.31
				C93.81,43.11,94.21,43.65,94.21,44.27z M93.06,43.59c-0.36,0-0.57,0.28-0.6,0.59h1.16C93.62,43.87,93.43,43.59,93.06,43.59z"/>
			<path class="st1" d="M98.73,43.84c0.03,0.42-0.03,0.82-0.27,1.19l0.6,0.62h-0.68l-0.26-0.27c-0.26,0.22-0.6,0.34-0.99,0.34
				c-0.83,0-1.29-0.44-1.29-0.98c0-0.48,0.37-0.78,0.73-0.96c-0.24-0.26-0.4-0.5-0.4-0.88c0-0.47,0.41-0.89,0.97-0.89
				c0.53,0,0.96,0.39,0.96,0.85c0,0.57-0.46,0.87-0.75,1.01l0.73,0.75c0.12-0.24,0.16-0.51,0.14-0.78H98.73z M96.86,44.1
				c-0.22,0.11-0.46,0.3-0.46,0.59c0,0.31,0.29,0.54,0.72,0.54c0.23,0,0.45-0.08,0.62-0.23L96.86,44.1z M97.01,43.54
				c0.22-0.11,0.55-0.32,0.55-0.62c0-0.23-0.2-0.42-0.44-0.42c-0.24,0-0.44,0.18-0.44,0.42C96.68,43.16,96.8,43.32,97.01,43.54z"/>
			<path class="st1" d="M102.99,45.66v-1.55h-1.62v1.55h-0.63v-3.58h0.63v1.51h1.62v-1.51h0.63v3.58H102.99z"/>
			<path class="st1" d="M104.82,42.11c0.21,0,0.35,0.13,0.35,0.34c0,0.2-0.14,0.34-0.35,0.34c-0.21,0-0.35-0.13-0.35-0.34
				C104.47,42.25,104.61,42.11,104.82,42.11z M105.13,43.17v2.49h-0.61v-2.49H105.13z"/>
			<path class="st1" d="M106.62,44.63c-0.45-0.14-0.77-0.33-0.77-0.8c0-0.44,0.37-0.73,0.92-0.73c0.31,0,0.59,0.08,0.75,0.15v0.53
				c-0.17-0.09-0.42-0.17-0.64-0.18c-0.08,0-0.17,0-0.24,0.02c-0.12,0.03-0.23,0.1-0.23,0.23c0,0.16,0.15,0.24,0.45,0.33
				c0.55,0.17,0.81,0.36,0.81,0.8c0,0.47-0.38,0.73-0.97,0.73c-0.35,0-0.64-0.08-0.83-0.16v-0.54c0.24,0.12,0.58,0.22,0.82,0.22
				c0.22,0,0.42-0.07,0.42-0.26C107.11,44.8,106.94,44.73,106.62,44.63z"/>
			<path class="st1" d="M108.42,43.17v-0.75h0.59v0.75h0.71v0.48h-0.71v1.14c0,0.31,0.16,0.41,0.34,0.41c0.15,0,0.32-0.05,0.45-0.1
				v0.51c-0.11,0.06-0.33,0.11-0.6,0.11c-0.38,0-0.76-0.18-0.79-0.72c0-0.08-0.01-0.16-0.01-0.25v-1.1h-0.38v-0.48H108.42z"/>
			<path class="st1" d="M112.8,44.41c0,0.75-0.55,1.31-1.3,1.31c-0.75,0-1.3-0.56-1.3-1.31c0-0.75,0.55-1.31,1.3-1.31
				C112.25,43.11,112.8,43.66,112.8,44.41z M112.22,44.41c0-0.47-0.31-0.79-0.73-0.79c-0.41,0-0.73,0.32-0.73,0.79
				c0,0.47,0.31,0.79,0.73,0.79C111.91,45.2,112.22,44.88,112.22,44.41z"/>
			<path class="st1" d="M113.48,43.17h0.56c0,0.1,0.01,0.2,0.01,0.29c0,0.08,0,0.15,0,0.17c0.15-0.3,0.41-0.53,0.76-0.53
				c0.07,0,0.14,0.01,0.15,0.01v0.59c-0.02,0-0.07-0.02-0.15-0.02c-0.43,0-0.72,0.43-0.72,0.9v1.07h-0.61V43.17z"/>
			<path class="st1" d="M115.35,46.24c0.05,0.01,0.15,0.04,0.28,0.04c0.36,0,0.54-0.27,0.71-0.64l-1.03-2.47h0.66l0.32,0.88
				c0.12,0.33,0.25,0.67,0.36,1c0.09-0.21,0.26-0.76,0.36-1l0.31-0.88h0.66l-0.97,2.42c-0.28,0.71-0.59,1.1-1.08,1.2
				c-0.1,0.02-0.2,0.02-0.3,0.02c-0.12,0-0.23-0.02-0.28-0.04V46.24z"/>
		</g>
	</g>
	<path class="st1" d="M22,23.15h0.19l10.78,22.5H28l-1.78-3.91h-8.28l-1.72,3.91h-4.96L22,23.15z M24.8,38.42
		c-1.02-2.31-2-4.65-2.68-6.59c-0.65,1.54-1.82,4.5-2.74,6.59H24.8z"/>
	<path class="st1" d="M44.64,23.15h0.19l10.77,22.5h-4.96l-1.78-3.91h-8.28l-1.72,3.91h-4.96L44.64,23.15z M47.44,38.42
		c-1.02-2.31-2-4.65-2.68-6.59c-0.65,1.54-1.81,4.5-2.74,6.59H47.44z"/>
	<path class="st1" d="M72.22,28.94c-1.32-0.68-3.42-1.54-6.13-1.54c-4.49,0-7.33,3.23-7.33,7.17c0,3.97,2.8,7.17,7.17,7.17
		c2.86,0,5.05-0.83,6.43-1.54v4.4c-1.14,0.62-3.66,1.48-6.77,1.48c-6.68,0-11.58-5.02-11.58-11.51c0-6.47,4.9-11.52,11.73-11.52
		c3.11,0,5.33,0.92,6.46,1.54V28.94z"/>
	<g>
		<polygon class="st0" points="24.17,20.74 26.92,26.48 31,17.92 		"/>
		<polygon class="st0" points="32.38,17.35 27.47,27.64 30.01,32.93 38.68,14.75 		"/>
		<polygon class="st0" points="40.06,14.18 30.56,34.09 33.42,40.06 47.17,11.25 		"/>
	</g>
</g>
</svg>
