<?xml version="1.0" encoding="utf-8"?>
<!-- Generator: Adobe Illustrator 16.0.3, SVG Export Plug-In . SVG Version: 6.00 Build 0)  -->
<!DOCTYPE svg PUBLIC "-//W3C//DTD SVG 1.1//EN" "http://www.w3.org/Graphics/SVG/1.1/DTD/svg11.dtd">
<svg version="1.1" id="Ebene_1" xmlns="http://www.w3.org/2000/svg" xmlns:xlink="http://www.w3.org/1999/xlink" x="0px" y="0px"
	 width="868.104px" height="768.146px" viewBox="0 0 868.104 768.146" enable-background="new 0 0 868.104 768.146"
	 xml:space="preserve">
<g>
	<path fill-rule="evenodd" clip-rule="evenodd" fill="#666666" d="M166.729,450.489c14.8,0.003,29.622,0.476,44.39-0.212
		c6.609-0.309,9.918,2.363,12.784,7.503c10.222,18.331,23.26,34.551,38.685,48.671c11.27,10.315,23.75,19.028,37.16,26.668
		c17.75,10.112,36.502,16.978,56.303,21.147c11.227,2.364,22.639,3.56,34.121,4.628c12.459,1.159,24.682,0.089,36.883-0.683
		c14.764-0.934,29.301-4.239,43.592-8.488c25.648-7.627,48.529-19.93,68.936-37.374c18.895-16.149,33.672-35.204,44.33-57.516
		c1.824-3.815,4.365-4.401,8.08-4.396c58.396,0.081,116.799-0.206,175.195,0.241c14.326,0.109,24.648-6.608,34.09-15.665
		c10.363-9.941,15.518-23.246,21.398-35.956c6.316-13.646,11.773-27.668,16.803-41.84c2.682-7.555,1.48-9.545-5.604-12.81
		c-7.033-3.242-13.711-7.234-19.584-12.313c-4.721-4.08-5.082-11.726-0.857-19.953c6.344-12.354,12.859-24.631,20.328-36.362
		c0.697-1.098,0.92-2.845,2.756-2.776c1.957,0.072,2.24,1.697,3.08,3.1c7.957,13.26,14.256,27.292,18.699,42.044
		c3.707,12.3,6.404,24.821,7.885,37.719c1.137,9.911,1.025,19.853,1.666,29.721c0.896,13.801-0.783,27.79-1.701,41.677
		c-0.498,7.532-0.281,15.059-1.311,22.624c-2.781,20.453-6.664,40.542-13.523,60.101c-7.729,22.049-18.211,42.652-30.805,62.217
		c-9.762,15.162-20.537,29.585-32.416,43.194c-8.299,9.508-16.777,18.834-25.727,27.716c-12.76,12.662-26.08,24.729-39.906,36.217
		c-9.91,8.236-19.842,16.465-30.061,24.312c-10.166,7.807-20.135,15.925-31.184,22.51c-1.236,0.737-2.447,1.547-4.395,0.889
		c-19.23-6.502-39.123-9.52-59.277-11.51c-8.689-0.857-17.285-2.74-26.08-2.215c-3.424,0.205-4.527-2.113-5.408-4.578
		c-8.992-25.115-22.42-47.688-39.02-68.469c-12.443-15.578-27.145-28.634-45.43-36.619c-14.691-6.416-30.438-9.678-46.465-11.7
		c-12.773-1.611-25.506-1.054-38.238-0.96c-35.65,0.263-69.123,7.886-98.244,29.964c-14.209,10.773-28.389,21.528-41.726,33.405
		c-12.339,10.988-24.651,21.983-36.124,33.877c-2.203,2.285-4.071,2.303-6.825,0.997c-30.753-14.577-59.171-32.771-85.737-54.04
		c-18.85-15.091-36.341-31.636-52.57-49.377c-17.679-19.325-34.459-39.571-46.496-63.091c-5.479-10.709-9.577-21.999-13.331-33.553
		c-8.547-26.306-9.285-53.256-7.651-80.145c1.808-29.754,8.435-58.888,21.603-85.893c10.33-21.186,22.136-41.581,35.88-60.887
		c17.371-24.4,36-47.707,55.822-70.143c13.244-14.992,26.688-29.803,39.947-44.773c11.375-12.841,22.977-25.432,35.229-37.424
		c3.55-3.476,7.322-6.744,11.188-9.869c2.51-2.029,4.605-1.861,5.578,1.878c1.593,6.122,0.908,12.302,0.594,18.432
		c-1.045,20.396-6.418,40.26-7.242,60.759c-0.391,9.744-0.73,19.493-0.898,29.244c-0.092,5.25-1.953,7.211-7.793,7.57
		c-16.804,1.031-33.648,1.813-50.359,4.33c-7.031,1.06-14.271,0.412-21.428,1.297c-6.672,0.826-8.859,3.189-6.132,9.66
		c2.074,4.922,5.099,9.438,7.608,14.182c9.252,17.505,18.433,35.048,27.741,52.521c1.154,2.168,1.169,3.753,0.024,6.035
		c-11.288,22.519-22.463,45.096-33.445,67.765c-1.129,2.33-2.314,3.981-4.561,5.125c-11.228,5.72-18.906,14.862-24.398,25.942
		c-4.014,8.098-9.135,15.799-9.696,25.252c-0.392,6.6,3.352,10.658,8.417,13.867c8.388,5.312,17.968,6.229,27.458,6.475
		C135.123,450.785,150.93,450.486,166.729,450.489z"/>
	<path fill-rule="evenodd" clip-rule="evenodd" fill="#666666" d="M670.672,380.897c-6.6,0-13.201-0.133-19.797,0.049
		c-3.977,0.11-6.033-1.322-7.33-5.297c-7.928-24.295-15.98-48.554-24.313-72.713c-3.855-11.179-8.436-22.115-11.479-33.562
		c-1.635-6.151-5.664-2.514-8.549-2.139c-3.381,0.439-3.379,2.762-2.285,5.799c5.029,13.971,9.691,28.075,14.734,42.042
		c0.746,2.066,0.48,3.142-0.777,4.706c-11.703,14.578-18.461,31.767-25.563,48.767c-0.84,2.014-1.57,4.082-2.543,6.029
		c-1.104,2.211-1.512,5.12-5.043,5.096c-3.465-0.023-4.391-3.124-5.166-5.116c-5.629-14.456-12.197-28.506-18.879-42.46
		c-9.139-19.089-17.178-38.784-29.48-56.261c-3.402-4.832-6.57-9.899-8.791-15.505c-3.115-7.861-11.523-10.193-19.092-6.323
		c-6.654,3.4-12.137,8.135-17.523,13.078c-17.266,15.846-34.057,32.199-51.135,48.235c-12.283,11.533-23.896,23.755-36.447,35.027
		c-4.738,4.257-9.471,8.763-13.779,13.582c-3.73,4.173-10.432,5.324-14.519,2.422c-3.622-2.572-3.713-7.117-4.292-10.691
		c-3.707-22.878-9.329-45.368-14.016-68.024c-4.561-22.043-9.468-44.059-14.387-66.05c-5.789-25.874-10.299-51.987-14.109-78.237
		c-1.712-11.797-2.838-23.598-3.42-35.476c-0.077-1.577,0.064-3.195,0.334-4.755c0.646-3.728,2.17-4.877,6.121-3
		c13.973,6.643,27.643,13.809,40.881,21.816c19.801,11.978,39.258,24.5,58.311,37.616c14.316,9.856,28.334,20.175,42.523,30.208
		c16.281,11.514,32.793,22.793,47.996,35.604c9.104,7.672,17.207,8.892,28.17,5.585c19.85-5.985,40.035-10.922,60.215-15.727
		c12.287-2.926,24.813-4.881,37.264-7.093c10.512-1.868,21.061-3.55,31.613-5.173c5.666-0.872,11.424-1.195,17.051-2.237
		c4.5-0.833,4.553,1.789,3.459,4.349c-2.799,6.547-5.998,12.93-9.199,19.295c-6.379,12.687-14.822,24.591-14.381,39.763
		c0.234,8.091,4.023,10.989,12.199,10.209c8.895-0.849,17.865-0.701,26.807-1.234c18.439-1.1,36.744-3.868,55.146-4.623
		c15.941-0.653,31.521-3.42,47.256-5.278c6.867-0.811,13.838-1.371,20.361-4c1.547-0.623,3.299-1.322,4.453,0.002
		c1.324,1.517-0.334,2.777-1.119,4.145c-8.684,15.119-18.121,29.828-25.324,45.76c-2.873,6.352-5.033,12.794-3.051,20.051
		c1.51,5.524,4.793,9.816,9.035,13.012c4.852,3.654,9.383,8.109,15.471,9.82c3.449,0.97,3.916,3.385,3.006,6.016
		c-2.393,6.922-4.988,13.783-7.773,20.558c-1.539,3.74-4.248,5.514-8.586,3.852c-1.59-0.608-3.553-0.309-5.346-0.311
		c-21.596-0.016-43.191,0.013-64.787-0.046c-2.086-0.005-4.887,1.057-6.012-1.358c-0.902-1.937,1.27-3.516,2.33-5.146
		c16.514-25.382,32.977-50.797,49.576-76.124c1.895-2.892,2.975-4.994-0.754-7.192c-3.207-1.892-5.441-3.968-8.486,0.993
		c-8.578,13.979-17.869,27.518-26.848,41.25c-9.648,14.755-19.328,29.491-28.85,44.327c-3.295,5.137-8.264,3.462-12.463,2.957
		c-3.137-0.377-2.68-4.301-3.02-6.963c-2.514-19.615-3.727-39.479-9.84-58.442c-1.746-5.418-4.803-10.637-9.59-14.149
		c-4.418-3.241-10.836-3.491-15.623,4.229c-6.572,10.597-12.432,21.645-18.311,32.652c-1.045,1.956-3.518,5.255,1.096,6.614
		c3.313,0.978,6.508,3.657,9.213-1.969c4.623-9.616,10.365-18.691,15.496-28.07c2.166-3.958,3.602-3.484,5.301,0.289
		c3.455,7.68,5.342,15.79,6.625,24.038c1.674,10.749,2.943,21.563,4.666,32.303c1.203,7.513,0.479,8.596-7.238,8.601
		C682.27,380.9,676.471,380.897,670.672,380.897z"/>
	<path fill-rule="evenodd" clip-rule="evenodd" fill="#666666" d="M442.227,438.496c-109.377,0-218.754,0.002-328.131-0.004
		c-6.058,0-11.704-1.263-17.02-4.483c-2.887-1.747-3.675-4.157-2.5-6.487c4.722-9.355,8.092-19.368,14.814-27.762
		c7.146-8.923,16.486-13.571,27.287-15.148c13.52-1.975,27.079-3.778,40.229-7.438c7.35-2.046,14.824-4.65,17.83-13.273
		c0.94-2.698-2.171-6.93,2.537-8.047c2.873-0.682,5.893,0.494,8.818,0.75c16.591,1.446,33.033,4.233,49.445,6.676
		c17.377,2.586,34.957,3.83,52.209,7.603c10.783,2.358,22.032,2.509,33.02,4.033c20.968,2.907,41.904,6.005,62.938,8.466
		c15.324,1.794,30.563,4.348,45.842,6.545c2.344,0.338,5.521,2.223,5.83-2.212c0.246-3.539,3.459-8.51-3.873-9.124
		c-7.697-0.645-15.402-1.398-23.037-2.543c-12.139-1.818-24.25-3.762-36.488-4.843c-3.568-0.314-3.162-2.938-1.389-4.475
		c12.389-10.718,22.939-23.299,35.242-34.133c10.492-9.243,19.85-19.765,30.125-29.271c14.256-13.187,28.119-26.825,43.398-38.873
		c2.277-1.796,4.094-1.811,5.832,0.986c14.35,23.087,27.738,46.661,38.352,71.761c4.92,11.634,10.807,22.855,15.801,34.46
		c2.85,6.622,2.438,6.826-4.553,6.834c-15.398,0.019-30.797,0.132-46.189-0.07c-4.512-0.059-6.365,1.117-6.469,6.023
		c-0.119,5.542,3.166,4.75,6.563,4.869c43.32,1.527,86.674,0.483,129.984,1.498c17.137,0.4,34.342-0.316,51.406,1.063
		c24.156,1.95,48.291,0.747,72.426,0.868c15.17,0.075,30.254,2.181,45.436,1.371c2.35-0.126,4.979,0.073,3.309,3.534
		c-6.797,14.098-13.174,28.495-27.41,37.185c-3.859,2.355-7.645,3.739-12.283,3.735
		C661.779,438.472,552.004,438.494,442.227,438.496z"/>
	<path fill-rule="evenodd" clip-rule="evenodd" fill="#666666" d="M698.9,262.055c-5.99-0.989-12.984,1.729-20.205,1.321
		c-3.693-0.208-5.342-0.476-4.25-5.155c2.811-12.046,9.637-22.085,15.031-32.866c3.76-7.514,8.82-14.556,8.461-23.719
		c-0.369-9.452-6.018-14.244-15.545-12.594c-20.455,3.539-40.924,7.002-61.387,10.495c-2.969,0.507-4.236-0.757-4.848-3.733
		c-2.631-12.785-5.518-25.518-8.281-38.275c-4.271-19.706-9.162-39.307-12.574-59.161c-2.779-16.159-6.07-32.247-8.092-48.563
		c-0.807-6.492-0.188-13.066-1.867-19.52c-1.426-5.486,0.369-11.084,1.594-16.459c0.912-4.004,7.043-6.602,11.174-5.616
		c6.854,1.635,12.867,4.964,18.572,8.954c14.328,10.025,28.035,20.814,41.078,32.49c13.314,11.92,26.697,23.797,38.926,36.807
		c21.439,22.807,42.439,45.979,61.77,70.701c21.271,27.205,40.119,56.047,59.756,84.364c4.74,6.837,4.338,7.087-3.979,8.702
		c-16.146,3.137-32.441,5.289-48.773,6.824c-9.277,0.873-18.582,1.758-27.867,2.398C725.111,260.314,712.701,262.439,698.9,262.055z
		"/>
	<path fill-rule="evenodd" clip-rule="evenodd" fill="#666666" d="M224.578,175.586c12.166,0.617,22.537,3.609,33.336,3.937
		c9.845,0.299,19.641,2.18,29.459,3.353c6.871,0.819,13.73,1.785,20.622,2.345c2.572,0.209,3.196,1.215,3.671,3.535
		c2.607,12.791,5.355,25.555,8.207,38.294c5.527,24.696,10.448,49.528,15.952,74.22c4.388,19.684,7.959,39.553,13.031,59.079
		c1.004,3.863,0.444,5.165-3.761,4.464c-22.247-3.712-44.604-6.628-67.016-9.158c-5.113-0.577-10.156-1.864-15.275-2.265
		c-3.434-0.268-4.607-2.486-5.137-4.935c-3.797-17.58-7.272-35.229-11.082-52.806c-3.224-14.876-6.85-29.665-10.137-44.527
		c-5.125-23.179-9.868-46.445-15.336-69.541C219.799,176.031,221.289,175.068,224.578,175.586z"/>
	<path fill-rule="evenodd" clip-rule="evenodd" fill="#666666" d="M134.113,235.063c7.191-3.269,14.56-1.936,21.568-2.695
		c20.293-2.2,40.73-3.065,61.098-4.623c3.014-0.229,2.869,1.535,3.588,3.459c3.566,9.54,4.41,19.687,6.786,29.489
		c5.126,21.139,10.155,42.32,14.32,63.662c1.407,7.215,3.429,14.23,4.92,21.391c0.757,3.636,0.396,5.501-4.479,4.722
		c-16.02-2.563-32.115-4.683-48.221-6.66c-3.309-0.406-5.057-1.875-6.264-4.605c-11.063-25.028-24.058-49.074-37.068-73.117
		C144.818,255.841,139.545,245.453,134.113,235.063z"/>
	<path fill-rule="evenodd" clip-rule="evenodd" fill="#666666" d="M643.971,735.381c-0.553,2.075-2.262,2.736-3.531,3.376
		c-12.209,6.146-24.113,12.865-36.738,18.235c-7.777,3.309-15.229,7.405-23.172,10.438c-3.951,1.508-5.172,0.782-5.148-3.595
		c0.043-9.345,0.889-18.749-1.107-28.021c-0.25-1.158-0.309-2.383-0.721-3.475c-3.393-8.965-1.967-9.11,6.914-8.042
		c16.488,1.984,33.018,3.819,49.369,6.901c4.082,0.769,7.832,3.011,12.17,2.614C643.109,733.712,643.703,734.583,643.971,735.381z"
		/>
	<path fill-rule="evenodd" clip-rule="evenodd" fill="#666666" d="M136.418,372.59c0.598-6.408,4.57-11.109,6.998-16.428
		c5.581-12.22,11.572-24.251,17.402-36.356c1.482-3.08,3.07-3.576,4.812-0.177c6.483,12.657,12.845,25.362,17.72,38.766
		c0.9,2.477,0.2,3.385-1.727,4.74c-6.411,4.508-14.188,5.009-21.324,6.611C152.751,371.442,144.898,373.206,136.418,372.59z"/>
	<path fill-rule="evenodd" clip-rule="evenodd" fill="#666666" d="M633.213,379.668c-12.48,0-24.24,0.039-35.998-0.035
		c-2.186-0.013-4.281-0.807-3.072-3.629c6-14.004,11.574-28.211,19.631-41.249c2.057-3.331,3.73-2.449,4.697,0.395
		C623.42,349.727,628.17,364.375,633.213,379.668z"/>
</g>
<g id="IndAustralia">
	<path fill-rule="evenodd" clip-rule="evenodd" stroke="#000000" stroke-width="2" stroke-miterlimit="10" d="M691.9,255.055
		c-5.99-0.99-12.984,1.729-20.205,1.322c-3.693-0.208-5.342-0.476-4.25-5.156c2.811-12.046,9.637-22.084,15.031-32.866
		c3.76-7.514,8.82-14.556,8.461-23.719c-0.369-9.453-6.018-14.244-15.545-12.595c-20.455,3.54-40.924,7.002-61.387,10.496
		c-2.969,0.507-4.236-0.757-4.848-3.734c-2.631-12.785-5.518-25.517-8.281-38.275c-4.271-19.706-9.162-39.307-12.574-59.161
		c-2.779-16.159-6.07-32.247-8.092-48.564c-0.807-6.492-0.188-13.066-1.867-19.519c-1.426-5.487,0.369-11.085,1.594-16.459
		c0.912-4.004,7.043-6.602,11.174-5.617c6.854,1.635,12.867,4.963,18.572,8.954c14.328,10.026,28.035,20.815,41.078,32.491
		c13.314,11.92,26.697,23.797,38.926,36.807c21.439,22.807,42.439,45.979,61.77,70.701c21.271,27.205,40.119,56.047,59.756,84.364
		c4.74,6.836,4.338,7.087-3.979,8.703c-16.146,3.136-32.441,5.288-48.773,6.824c-9.277,0.873-18.582,1.757-27.867,2.398
		C718.111,253.313,705.701,255.439,691.9,255.055z"/>
	<linearGradient id="SVGID_1_" gradientUnits="userSpaceOnUse" x1="431.9902" y1="721.729" x2="431.9902" y2="93.1924">
		<stop  offset="0.1022" style="stop-color:#CC1400"/>
		<stop  offset="0.1843" style="stop-color:#CC2000"/>
		<stop  offset="0.3219" style="stop-color:#CC2E00"/>
		<stop  offset="0.44" style="stop-color:#CC3300"/>
		<stop  offset="0.4418" style="stop-color:#CE3D00"/>
		<stop  offset="0.4534" style="stop-color:#DD7700"/>
		<stop  offset="0.4646" style="stop-color:#E9A800"/>
		<stop  offset="0.4752" style="stop-color:#F3CE00"/>
		<stop  offset="0.4849" style="stop-color:#F9E900"/>
		<stop  offset="0.4935" style="stop-color:#FEF900"/>
		<stop  offset="0.5" style="stop-color:#FFFF00"/>
		<stop  offset="0.514" style="stop-color:#FBFB00"/>
		<stop  offset="0.5279" style="stop-color:#EFEF00"/>
		<stop  offset="0.5416" style="stop-color:#DBDB00"/>
		<stop  offset="0.5554" style="stop-color:#BFBF00"/>
		<stop  offset="0.5691" style="stop-color:#9C9C00"/>
		<stop  offset="0.5828" style="stop-color:#707000"/>
		<stop  offset="0.5964" style="stop-color:#3C3C00"/>
		<stop  offset="0.6098" style="stop-color:#010100"/>
		<stop  offset="0.61" style="stop-color:#000000"/>
	</linearGradient>
	
		<path fill-rule="evenodd" clip-rule="evenodd" fill="url(#SVGID_1_)" stroke="#000000" stroke-width="2" stroke-miterlimit="10" d="
		M160.918,444.933c14.8,0.003,29.622,0.476,44.39-0.212c6.609-0.309,9.918,2.363,12.784,7.503
		c10.222,18.331,23.26,34.551,38.685,48.671c11.27,10.315,23.75,19.028,37.16,26.668c17.75,10.112,36.502,16.978,56.303,21.147
		c11.227,2.364,22.639,3.56,34.121,4.628c12.459,1.159,24.682,0.089,36.883-0.683c14.763-0.934,29.3-4.239,43.591-8.488
		c25.648-7.627,48.529-19.93,68.936-37.374c18.895-16.149,33.672-35.204,44.33-57.516c1.824-3.815,4.365-4.401,8.08-4.396
		c58.396,0.081,116.799-0.206,175.195,0.241c14.326,0.109,24.648-6.608,34.09-15.665c10.363-9.941,15.518-23.246,21.398-35.956
		c6.316-13.646,11.773-27.668,16.803-41.84c2.682-7.555,1.48-9.545-5.604-12.81c-7.033-3.242-13.711-7.235-19.584-12.312
		c-4.721-4.081-5.082-11.726-0.857-19.953c6.344-12.355,12.859-24.631,20.328-36.363c0.697-1.098,0.92-2.845,2.756-2.776
		c1.957,0.072,2.24,1.698,3.08,3.1c7.957,13.26,14.256,27.292,18.699,42.044c3.707,12.299,6.404,24.821,7.885,37.719
		c1.137,9.911,1.025,19.853,1.666,29.721c0.896,13.801-0.783,27.79-1.701,41.677c-0.498,7.532-0.281,15.059-1.311,22.624
		c-2.781,20.453-6.664,40.542-13.523,60.101c-7.729,22.049-18.211,42.652-30.805,62.217c-9.762,15.162-20.537,29.585-32.416,43.194
		c-8.299,9.508-16.777,18.834-25.727,27.716c-12.76,12.662-26.08,24.729-39.906,36.217c-9.91,8.236-19.842,16.465-30.061,24.312
		c-10.166,7.807-20.135,15.925-31.184,22.51c-1.236,0.737-2.447,1.547-4.395,0.889c-19.23-6.502-39.123-9.52-59.277-11.51
		c-8.689-0.857-17.285-2.74-26.08-2.215c-3.424,0.205-4.527-2.113-5.408-4.578c-8.992-25.115-22.42-47.688-39.02-68.469
		c-12.443-15.578-27.145-28.634-45.43-36.619c-14.691-6.416-30.438-9.678-46.465-11.7c-12.773-1.611-25.505-1.054-38.238-0.96
		c-35.65,0.263-69.123,7.886-98.244,29.964c-14.209,10.773-28.389,21.528-41.726,33.405c-12.339,10.988-24.651,21.983-36.124,33.877
		c-2.203,2.285-4.071,2.303-6.825,0.997c-30.753-14.577-59.171-32.771-85.737-54.04c-18.85-15.091-36.341-31.636-52.57-49.377
		c-17.679-19.325-34.459-39.571-46.496-63.091c-5.479-10.709-9.577-21.999-13.331-33.553c-8.547-26.306-9.285-53.256-7.651-80.145
		c1.808-29.754,8.435-58.888,21.603-85.893c10.33-21.186,22.136-41.581,35.88-60.887c17.371-24.4,36-47.707,55.822-70.143
		c13.244-14.992,26.688-29.803,39.947-44.773c11.375-12.841,22.977-25.432,35.229-37.424c3.55-3.475,7.322-6.744,11.188-9.869
		c2.51-2.029,4.605-1.861,5.578,1.878c1.593,6.122,0.908,12.302,0.594,18.432c-1.045,20.396-6.418,40.26-7.242,60.759
		c-0.391,9.743-0.73,19.493-0.898,29.244c-0.092,5.249-1.953,7.21-7.793,7.569c-16.804,1.032-33.648,1.813-50.359,4.331
		c-7.031,1.06-14.271,0.412-21.428,1.297c-6.672,0.826-8.859,3.189-6.132,9.66c2.074,4.922,5.099,9.437,7.608,14.182
		c9.252,17.504,18.433,35.047,27.741,52.521c1.154,2.167,1.169,3.752,0.024,6.034c-11.288,22.519-22.463,45.096-33.445,67.765
		c-1.129,2.33-2.314,3.981-4.561,5.125c-11.228,5.72-18.906,14.862-24.398,25.942c-4.014,8.098-9.135,15.799-9.696,25.252
		c-0.392,6.6,3.352,10.658,8.417,13.867c8.388,5.312,17.968,6.229,27.458,6.475C129.312,445.229,145.119,444.93,160.918,444.933z"/>
	<path fill-rule="evenodd" clip-rule="evenodd" fill="#CC1400" stroke="#000000" stroke-width="2" stroke-miterlimit="10" d="
		M636.971,728.381c-0.553,2.075-2.262,2.736-3.531,3.376c-12.209,6.146-24.113,12.865-36.738,18.235
		c-7.777,3.309-15.229,7.405-23.172,10.438c-3.951,1.508-5.172,0.782-5.148-3.595c0.043-9.345,0.889-18.749-1.107-28.021
		c-0.25-1.158-0.309-2.383-0.721-3.475c-3.393-8.965-1.967-9.11,6.914-8.042c16.488,1.984,33.018,3.819,49.369,6.901
		c4.082,0.769,7.832,3.011,12.17,2.614C636.109,726.712,636.703,727.583,636.971,728.381z"/>
</g>
<g display="none">
	<path display="inline" fill="#CC3300" stroke="#000000" stroke-miterlimit="10" d="M691.9,255.055
		c-5.99-0.99-12.984,1.729-20.205,1.322c-3.693-0.208-5.342-0.476-4.25-5.156c2.811-12.046,9.637-22.084,15.031-32.866
		c3.76-7.514,8.82-14.556,8.461-23.719c-0.369-9.453-6.018-14.244-15.545-12.595c-20.455,3.54-40.924,7.002-61.387,10.496
		c-2.969,0.507-4.236-0.757-4.848-3.734c-2.631-12.785-5.518-25.517-8.281-38.275c-4.271-19.706-9.162-39.307-12.574-59.161
		c-2.779-16.159-6.07-32.247-8.092-48.564c-0.807-6.492-0.188-13.066-1.867-19.519c-1.426-5.487,0.369-11.085,1.594-16.459
		c0.912-4.004,7.043-6.602,11.174-5.617c6.854,1.635,12.867,4.963,18.572,8.954c14.328,10.026,28.035,20.815,41.078,32.491
		c13.314,11.92,26.697,23.797,38.926,36.807c21.439,22.807,42.439,45.979,61.77,70.701c21.271,27.205,40.119,56.047,59.756,84.364
		c4.74,6.836,4.338,7.087-3.979,8.703c-16.146,3.136-32.441,5.288-48.773,6.824c-9.277,0.873-18.582,1.757-27.867,2.398
		C718.111,253.313,705.701,255.439,691.9,255.055z"/>
	<path display="inline" fill="#CC3300" stroke="#000000" stroke-miterlimit="10" d="M159.73,443.489
		c14.8,0.003,29.622,0.476,44.39-0.212c6.609-0.309,9.918,2.363,12.784,7.503c10.222,18.331,23.26,34.551,38.685,48.671
		c11.27,10.315,23.75,19.028,37.16,26.668c17.75,10.112,36.502,16.978,56.303,21.147c11.227,2.364,22.639,3.56,34.121,4.628
		c12.459,1.159,24.682,0.089,36.883-0.683c14.763-0.934,29.3-4.239,43.591-8.488c25.648-7.627,48.529-19.93,68.936-37.374
		c18.895-16.149,33.672-35.204,44.33-57.516c1.824-3.815,4.365-4.401,8.08-4.396c58.396,0.081,116.799-0.206,175.195,0.241
		c14.326,0.109,24.648-6.608,34.09-15.665c10.363-9.941,15.518-23.246,21.398-35.956c6.316-13.646,11.773-27.668,16.803-41.84
		c2.682-7.555,1.48-9.545-5.604-12.81c-7.033-3.242-13.711-7.235-19.584-12.312c-4.721-4.081-5.082-11.726-0.857-19.953
		c6.344-12.355,12.859-24.631,20.328-36.363c0.697-1.098,0.92-2.845,2.756-2.776c1.957,0.072,2.24,1.698,3.08,3.1
		c7.957,13.26,14.256,27.292,18.699,42.044c3.707,12.299,6.404,24.821,7.885,37.719c1.137,9.911,1.025,19.853,1.666,29.721
		c0.896,13.801-0.783,27.79-1.701,41.677c-0.498,7.532-0.281,15.059-1.311,22.624c-2.781,20.453-6.664,40.542-13.523,60.101
		c-7.729,22.049-18.211,42.652-30.805,62.217c-9.762,15.162-20.537,29.585-32.416,43.194c-8.299,9.508-16.777,18.834-25.727,27.716
		c-12.76,12.662-26.08,24.729-39.906,36.217c-9.91,8.236-19.842,16.465-30.061,24.312c-10.166,7.807-20.135,15.925-31.184,22.51
		c-1.236,0.737-2.447,1.547-4.395,0.889c-19.23-6.502-39.123-9.52-59.277-11.51c-8.689-0.857-17.285-2.74-26.08-2.215
		c-3.424,0.205-4.527-2.113-5.408-4.578c-8.992-25.115-22.42-47.688-39.02-68.469c-12.443-15.578-27.145-28.634-45.43-36.619
		c-14.691-6.416-30.438-9.678-46.465-11.7c-12.773-1.611-25.505-1.054-38.238-0.96c-35.65,0.263-69.123,7.886-98.244,29.964
		c-14.209,10.773-28.389,21.528-41.726,33.405c-12.339,10.988-24.651,21.983-36.124,33.877c-2.203,2.285-4.071,2.303-6.825,0.997
		c-30.753-14.577-59.171-32.771-85.737-54.04c-18.85-15.091-36.341-31.636-52.57-49.377c-17.679-19.325-34.459-39.571-46.496-63.091
		c-5.479-10.709-9.577-21.999-13.331-33.553c-8.547-26.306-9.285-53.256-7.651-80.145c1.808-29.754,8.435-58.888,21.603-85.893
		c10.33-21.186,22.136-41.581,35.88-60.887c17.371-24.4,36-47.707,55.822-70.143c13.244-14.992,26.688-29.803,39.947-44.773
		c11.375-12.841,22.977-25.432,35.229-37.424c3.55-3.475,7.322-6.744,11.188-9.869c2.51-2.029,4.605-1.861,5.578,1.878
		c1.593,6.122,0.908,12.302,0.594,18.432c-1.045,20.396-6.418,40.26-7.242,60.759c-0.391,9.743-0.73,19.493-0.898,29.244
		c-0.092,5.249-1.953,7.21-7.793,7.569c-16.804,1.032-33.648,1.813-50.359,4.331c-7.031,1.06-14.271,0.412-21.428,1.297
		c-6.672,0.826-8.859,3.189-6.132,9.66c2.074,4.922,5.099,9.437,7.608,14.182c9.252,17.504,18.433,35.047,27.741,52.521
		c1.154,2.167,1.169,3.752,0.024,6.034c-11.288,22.519-22.463,45.096-33.445,67.765c-1.129,2.33-2.314,3.981-4.561,5.125
		c-11.228,5.72-18.906,14.862-24.398,25.942c-4.014,8.098-9.135,15.799-9.696,25.252c-0.392,6.6,3.352,10.658,8.417,13.867
		c8.388,5.312,17.968,6.229,27.458,6.475C128.124,443.785,143.93,443.486,159.73,443.489z"/>
	<path display="inline" fill="#CC3300" stroke="#000000" stroke-miterlimit="10" d="M636.971,728.381
		c-0.553,2.075-2.262,2.736-3.531,3.376c-12.209,6.146-24.113,12.865-36.738,18.235c-7.777,3.309-15.229,7.405-23.172,10.438
		c-3.951,1.508-5.172,0.782-5.148-3.595c0.043-9.345,0.889-18.749-1.107-28.021c-0.25-1.158-0.309-2.383-0.721-3.475
		c-3.393-8.965-1.967-9.11,6.914-8.042c16.488,1.984,33.018,3.819,49.369,6.901c4.082,0.769,7.832,3.011,12.17,2.614
		C636.109,726.712,636.703,727.583,636.971,728.381z"/>
</g>
<g>
	<path fill-rule="evenodd" clip-rule="evenodd" fill="#FFFFFF" stroke="#000000" stroke-width="2" stroke-miterlimit="10" d="
		M663.672,373.897c-6.6,0-13.201-0.133-19.797,0.049c-3.977,0.11-6.033-1.322-7.33-5.297c-7.928-24.295-15.98-48.553-24.313-72.713
		c-3.855-11.178-8.436-22.115-11.479-33.562c-1.635-6.151-5.664-2.514-8.549-2.139c-3.381,0.439-3.379,2.762-2.285,5.799
		c5.029,13.971,9.691,28.075,14.734,42.042c0.746,2.066,0.48,3.141-0.777,4.707c-11.703,14.577-18.461,31.766-25.563,48.766
		c-0.84,2.014-1.57,4.082-2.543,6.029c-1.104,2.211-1.512,5.12-5.043,5.096c-3.465-0.023-4.391-3.124-5.166-5.116
		c-5.629-14.456-12.197-28.505-18.879-42.46c-9.139-19.089-17.178-38.785-29.48-56.261c-3.402-4.832-6.57-9.899-8.791-15.505
		c-3.115-7.861-11.523-10.193-19.092-6.324c-6.654,3.401-12.137,8.135-17.523,13.078c-17.266,15.846-34.057,32.2-51.134,48.236
		c-12.283,11.533-23.896,23.755-36.447,35.027c-4.738,4.257-9.471,8.763-13.779,13.582c-3.73,4.173-10.432,5.324-14.519,2.422
		c-3.622-2.572-3.713-7.117-4.292-10.691c-3.707-22.878-9.329-45.369-14.016-68.024c-4.561-22.043-9.468-44.059-14.387-66.05
		c-5.789-25.874-10.299-51.987-14.109-78.237c-1.712-11.797-2.838-23.598-3.42-35.476c-0.077-1.577,0.064-3.195,0.334-4.755
		c0.646-3.728,2.17-4.877,6.121-3c13.973,6.642,27.643,13.808,40.881,21.816c19.801,11.977,39.258,24.499,58.311,37.616
		c14.316,9.857,28.333,20.175,42.523,30.208c16.281,11.514,32.793,22.793,47.996,35.604c9.104,7.672,17.207,8.892,28.17,5.585
		c19.85-5.986,40.035-10.922,60.215-15.727c12.287-2.926,24.813-4.881,37.264-7.093c10.512-1.868,21.061-3.55,31.613-5.173
		c5.666-0.872,11.424-1.194,17.051-2.237c4.5-0.833,4.553,1.789,3.459,4.349c-2.799,6.546-5.998,12.929-9.199,19.295
		c-6.379,12.686-14.822,24.59-14.381,39.762c0.234,8.091,4.023,10.989,12.199,10.209c8.895-0.849,17.865-0.701,26.807-1.234
		c18.439-1.1,36.744-3.868,55.146-4.623c15.941-0.653,31.521-3.42,47.256-5.278c6.867-0.811,13.838-1.372,20.361-4.001
		c1.547-0.623,3.299-1.322,4.453,0.002c1.324,1.517-0.334,2.778-1.119,4.145c-8.684,15.119-18.121,29.828-25.324,45.759
		c-2.873,6.352-5.033,12.794-3.051,20.052c1.51,5.524,4.793,9.816,9.035,13.011c4.852,3.655,9.383,8.11,15.471,9.821
		c3.449,0.97,3.916,3.385,3.006,6.016c-2.393,6.922-4.988,13.783-7.773,20.558c-1.539,3.74-4.248,5.514-8.586,3.852
		c-1.59-0.608-3.553-0.309-5.346-0.311c-21.596-0.016-43.191,0.013-64.787-0.046c-2.086-0.005-4.887,1.057-6.012-1.358
		c-0.902-1.937,1.27-3.516,2.33-5.146c16.514-25.382,32.977-50.797,49.576-76.124c1.895-2.892,2.975-4.994-0.754-7.192
		c-3.207-1.891-5.441-3.968-8.486,0.993c-8.578,13.978-17.869,27.517-26.848,41.25c-9.648,14.755-19.328,29.491-28.85,44.327
		c-3.295,5.137-8.264,3.462-12.463,2.957c-3.137-0.377-2.68-4.301-3.02-6.963c-2.514-19.615-3.727-39.479-9.84-58.443
		c-1.746-5.417-4.803-10.636-9.59-14.149c-4.418-3.241-10.836-3.491-15.623,4.229c-6.572,10.597-12.432,21.645-18.311,32.652
		c-1.045,1.957-3.518,5.255,1.096,6.615c3.313,0.977,6.508,3.657,9.213-1.969c4.623-9.617,10.365-18.692,15.496-28.071
		c2.166-3.958,3.602-3.484,5.301,0.289c3.455,7.681,5.342,15.791,6.625,24.039c1.674,10.749,2.943,21.563,4.666,32.303
		c1.203,7.513,0.479,8.596-7.238,8.601C675.27,373.9,669.471,373.897,663.672,373.897z"/>
	<path fill-rule="evenodd" clip-rule="evenodd" fill="#FFFFFF" stroke="#000000" stroke-width="2" stroke-miterlimit="10" d="
		M435.227,431.496c-109.376,0-218.753,0.002-328.13-0.004c-6.058,0-11.704-1.263-17.02-4.483c-2.887-1.747-3.675-4.157-2.5-6.487
		c4.722-9.355,8.092-19.368,14.814-27.762c7.146-8.923,16.486-13.571,27.287-15.148c13.52-1.975,27.079-3.778,40.229-7.438
		c7.35-2.046,14.824-4.65,17.83-13.273c0.94-2.698-2.171-6.93,2.537-8.047c2.873-0.682,5.893,0.494,8.818,0.75
		c16.591,1.446,33.033,4.233,49.445,6.676c17.377,2.586,34.957,3.83,52.209,7.603c10.783,2.358,22.032,2.509,33.02,4.033
		c20.968,2.907,41.904,6.005,62.938,8.466c15.324,1.794,30.562,4.348,45.841,6.545c2.344,0.338,5.521,2.223,5.83-2.212
		c0.246-3.539,3.459-8.51-3.873-9.124c-7.697-0.645-15.402-1.398-23.037-2.543c-12.139-1.818-24.25-3.762-36.488-4.843
		c-3.568-0.314-3.162-2.938-1.389-4.475c12.389-10.718,22.939-23.299,35.242-34.133c10.492-9.243,19.849-19.764,30.125-29.27
		c14.256-13.187,28.119-26.826,43.398-38.873c2.277-1.796,4.094-1.811,5.832,0.986c14.35,23.087,27.738,46.661,38.352,71.761
		c4.92,11.633,10.807,22.855,15.801,34.459c2.85,6.622,2.438,6.826-4.553,6.834c-15.398,0.019-30.797,0.132-46.189-0.07
		c-4.512-0.059-6.365,1.117-6.469,6.023c-0.119,5.542,3.166,4.75,6.563,4.869c43.32,1.527,86.674,0.483,129.984,1.498
		c17.137,0.4,34.342-0.316,51.406,1.063c24.156,1.95,48.291,0.747,72.426,0.868c15.17,0.075,30.254,2.181,45.436,1.371
		c2.35-0.126,4.979,0.073,3.309,3.534c-6.797,14.098-13.174,28.495-27.41,37.185c-3.859,2.355-7.645,3.739-12.283,3.735
		C654.779,431.472,545.004,431.494,435.227,431.496z"/>
	<path fill-rule="evenodd" clip-rule="evenodd" fill="#FFFFFF" stroke="#000000" stroke-width="2" stroke-miterlimit="10" d="
		M217.579,168.586c12.166,0.617,22.537,3.609,33.336,3.937c9.845,0.299,19.641,2.18,29.459,3.352
		c6.871,0.82,13.73,1.785,20.622,2.345c2.572,0.209,3.196,1.214,3.671,3.535c2.607,12.791,5.355,25.555,8.207,38.294
		c5.527,24.697,10.448,49.529,15.952,74.22c4.388,19.683,7.959,39.553,13.031,59.079c1.004,3.863,0.444,5.165-3.761,4.464
		c-22.247-3.712-44.604-6.628-67.016-9.158c-5.113-0.577-10.156-1.864-15.275-2.265c-3.434-0.268-4.607-2.486-5.137-4.935
		c-3.797-17.58-7.272-35.229-11.082-52.806c-3.224-14.876-6.85-29.665-10.137-44.527c-5.125-23.179-9.868-46.445-15.336-69.541
		C212.799,169.031,214.29,168.067,217.579,168.586z"/>
	<path fill-rule="evenodd" clip-rule="evenodd" fill="#FFFFFF" stroke="#000000" stroke-width="2" stroke-miterlimit="10" d="
		M127.114,228.063c7.191-3.268,14.56-1.936,21.568-2.695c20.293-2.201,40.73-3.066,61.098-4.623c3.014-0.23,2.869,1.535,3.588,3.459
		c3.566,9.54,4.41,19.687,6.786,29.489c5.126,21.139,10.155,42.321,14.32,63.662c1.407,7.214,3.429,14.23,4.92,21.391
		c0.757,3.636,0.396,5.501-4.479,4.722c-16.02-2.563-32.115-4.683-48.221-6.66c-3.309-0.406-5.057-1.875-6.264-4.605
		c-11.063-25.029-24.058-49.074-37.068-73.117C137.819,248.842,132.545,238.453,127.114,228.063z"/>
	<path fill-rule="evenodd" clip-rule="evenodd" fill="#FFFFFF" stroke="#000000" stroke-width="2" stroke-miterlimit="10" d="
		M129.418,365.59c0.598-6.408,4.57-11.109,6.998-16.428c5.581-12.219,11.572-24.251,17.402-36.356
		c1.482-3.08,3.07-3.577,4.812-0.177c6.483,12.657,12.845,25.362,17.72,38.766c0.9,2.477,0.2,3.385-1.727,4.74
		c-6.411,4.508-14.188,5.009-21.324,6.611C145.751,364.442,137.899,366.206,129.418,365.59z"/>
	<path fill-rule="evenodd" clip-rule="evenodd" fill="#FFFFFF" stroke="#000000" stroke-width="2" stroke-miterlimit="10" d="
		M626.213,372.668c-12.48,0-24.24,0.039-35.998-0.035c-2.186-0.013-4.281-0.807-3.072-3.629c6-14.004,11.574-28.211,19.631-41.249
		c2.057-3.332,3.73-2.449,4.697,0.394C616.42,342.727,621.17,357.375,626.213,372.668z"/>
</g>
</svg>
