<?xml version="1.0" encoding="utf-8"?>
<!-- Generator: Adobe Illustrator 25.2.3, SVG Export Plug-In . SVG Version: 6.00 Build 0)  -->
<svg version="1.1" id="Ebene_1" xmlns="http://www.w3.org/2000/svg" xmlns:xlink="http://www.w3.org/1999/xlink" x="0px" y="0px"
	 viewBox="0 0 153.05 56.91" style="enable-background:new 0 0 153.05 56.91;" xml:space="preserve">
<style type="text/css">
	.st0{fill:#C17E19;}
	.st1{fill:#FFFFFF;}
</style>
<path class="st0" d="M81.17,24.56v8.11h-1.67v-8.11h-2.77v-1.4h7.21v1.4H81.17z"/>
<path class="st0" d="M86.62,23.16v3.47c0,0.3-0.03,0.57-0.03,0.69c0.32-0.55,1.1-1.43,2.34-1.43c1.56,0,2.29,0.94,2.29,2.64v4.14
	H89.6v-3.86c0-0.77-0.19-1.45-1.08-1.45c-1.1,0-1.88,0.87-1.88,2.04v3.28h-1.61v-9.51H86.62z"/>
<path class="st0" d="M98.93,28.99c0,0.3-0.04,0.59-0.04,0.71h-4.61c0.04,1.11,0.83,1.77,2.05,1.77c0.93,0,1.89-0.28,2.34-0.56v1.41
	c-0.46,0.25-1.35,0.52-2.46,0.52c-2.19,0-3.61-1.44-3.61-3.48c0-2,1.44-3.48,3.3-3.48C97.89,25.9,98.93,27.35,98.93,28.99z
	 M95.88,27.19c-0.95,0-1.52,0.74-1.6,1.57h3.09C97.38,27.93,96.87,27.19,95.88,27.19z"/>
<path class="st0" d="M103.45,32.3v-1.63c0.67,0.34,1.59,0.66,2.54,0.69c0.34,0,0.67-0.03,0.95-0.11c0.67-0.16,1.08-0.5,1.08-1.02
	c0-0.75-0.54-1.16-2-1.68c-1.74-0.62-2.67-1.36-2.67-2.91c0-1.67,1.39-2.67,3.32-2.67c0.95,0,1.86,0.24,2.43,0.48v1.56
	c-0.54-0.3-1.45-0.57-2.31-0.57c-1.08,0-1.81,0.45-1.81,1.18c0,0.67,0.5,1.12,1.96,1.65c1.74,0.65,2.7,1.39,2.7,2.89
	c0,1.67-1.27,2.67-3.4,2.67C105.14,32.85,104.11,32.58,103.45,32.3z"/>
<path class="st0" d="M111.12,26.07v-1.98h1.56v1.98h1.88v1.28h-1.88v3.03c0,0.82,0.42,1.1,0.91,1.1c0.41,0,0.86-0.13,1.19-0.28v1.35
	c-0.3,0.16-0.87,0.3-1.59,0.3c-1,0-2.01-0.49-2.09-1.92c0-0.21-0.01-0.44-0.01-0.66v-2.92h-1v-1.28H111.12z"/>
<path class="st0" d="M116.08,26.37c0.37-0.2,1.26-0.48,2.38-0.48c1.96,0,2.92,0.94,2.92,2.59v4.19h-1.47l-0.03-0.69
	c-0.01-0.3,0.03-0.5,0.03-0.5h-0.03c-0.12,0.29-0.82,1.36-2.17,1.36c-1.18,0-2.1-0.7-2.1-1.97c0-1.63,1.6-2.42,4.16-2.06v-0.25
	c0-0.96-0.61-1.29-1.57-1.29c-0.87,0-1.7,0.29-2.13,0.55V26.37z M119.74,29.77c-1.81-0.29-2.58,0.22-2.58,0.98
	c0,0.5,0.36,0.85,0.91,0.85C119.02,31.59,119.74,30.69,119.74,29.77z"/>
<path class="st0" d="M126.38,31.43c0.85,0,1.55-0.36,1.88-0.57v1.47c-0.33,0.17-1,0.52-2.05,0.52c-2.07,0-3.49-1.48-3.49-3.48
	s1.41-3.48,3.49-3.48c1.04,0,1.68,0.33,2.01,0.5v1.48c-0.41-0.28-1.07-0.57-1.84-0.57c-1.19,0-2.02,0.83-2.02,2.06
	C124.35,30.6,125.17,31.43,126.38,31.43z"/>
<path class="st0" d="M133.59,28.84l2.47,3.83h-1.84l-1.86-2.99l-0.96,1.07v1.92h-1.59v-9.51h1.61v5.92l2.59-3.01h1.88L133.59,28.84z
	"/>
<path class="st0" d="M139.01,29.95c-1.2-0.37-2.05-0.87-2.05-2.11c0-1.16,0.98-1.94,2.44-1.94c0.83,0,1.57,0.21,2,0.4v1.41
	c-0.45-0.24-1.11-0.45-1.7-0.48c-0.22,0-0.45,0.01-0.65,0.05c-0.33,0.09-0.61,0.28-0.61,0.62c0,0.42,0.4,0.65,1.2,0.89
	c1.45,0.45,2.15,0.96,2.15,2.11c0,1.24-1.02,1.94-2.56,1.94c-0.94,0-1.7-0.21-2.21-0.44v-1.44c0.63,0.33,1.53,0.58,2.17,0.58
	c0.58,0,1.12-0.19,1.12-0.69C140.32,30.4,139.87,30.22,139.01,29.95z"/>
<path class="st1" d="M77.66,39.69v-3.58h0.63v3.05h1.46v0.53H77.66z"/>
<path class="st1" d="M80.61,36.14c0.21,0,0.35,0.13,0.35,0.34c0,0.2-0.14,0.34-0.35,0.34c-0.21,0-0.35-0.13-0.35-0.34
	C80.26,36.28,80.4,36.14,80.61,36.14z M80.91,37.2v2.49h-0.61V37.2H80.91z"/>
<path class="st1" d="M81.77,36.11h0.61v1.23c0,0.13-0.02,0.2-0.02,0.2h0.01c0.13-0.21,0.44-0.41,0.82-0.41
	c0.64,0,1.14,0.51,1.14,1.31c0,0.79-0.51,1.31-1.15,1.31c-0.39,0-0.73-0.23-0.85-0.5h-0.01c0,0,0.02,0.07,0.01,0.17l-0.01,0.26
	h-0.56V36.11z M82.4,38.44c0,0.54,0.35,0.79,0.69,0.79c0.4,0,0.68-0.33,0.68-0.79c0-0.47-0.28-0.79-0.68-0.79
	C82.75,37.65,82.4,37.91,82.4,38.44z"/>
<path class="st1" d="M85.02,37.2h0.56c0,0.1,0.01,0.2,0.01,0.29c0,0.08,0,0.15,0,0.17c0.15-0.3,0.41-0.53,0.76-0.53
	c0.07,0,0.14,0.01,0.15,0.01v0.59c-0.02,0-0.07-0.02-0.15-0.02c-0.43,0-0.72,0.43-0.72,0.9v1.07h-0.61V37.2z"/>
<path class="st1" d="M87.06,37.31c0.14-0.07,0.47-0.18,0.9-0.18c0.74,0,1.1,0.35,1.1,0.97v1.58H88.5l-0.01-0.26
	c0-0.11,0.01-0.19,0.01-0.19h-0.01c-0.04,0.11-0.31,0.51-0.82,0.51c-0.44,0-0.79-0.26-0.79-0.74c0-0.61,0.6-0.91,1.57-0.78v-0.09
	c0-0.36-0.23-0.49-0.59-0.49c-0.33,0-0.64,0.11-0.8,0.21V37.31z M88.43,38.59c-0.68-0.11-0.97,0.08-0.97,0.37
	c0,0.19,0.13,0.32,0.34,0.32C88.16,39.28,88.43,38.94,88.43,38.59z"/>
<path class="st1" d="M89.85,37.2h0.56c0,0.1,0.01,0.2,0.01,0.29c0,0.08,0,0.15,0,0.17c0.15-0.3,0.41-0.53,0.76-0.53
	c0.07,0,0.14,0.01,0.15,0.01v0.59c-0.02,0-0.07-0.02-0.15-0.02c-0.43,0-0.72,0.43-0.72,0.9v1.07h-0.61V37.2z"/>
<path class="st1" d="M91.72,40.27c0.05,0.01,0.15,0.04,0.28,0.04c0.36,0,0.54-0.27,0.71-0.64l-1.03-2.47h0.66l0.32,0.88
	c0.12,0.33,0.25,0.67,0.36,1c0.09-0.21,0.26-0.76,0.36-1l0.31-0.88h0.66l-0.97,2.42c-0.28,0.71-0.59,1.1-1.08,1.2
	c-0.1,0.02-0.2,0.02-0.3,0.02c-0.12,0-0.23-0.02-0.28-0.04V40.27z"/>
<path class="st1" d="M98.44,38.44c0,0.75-0.55,1.31-1.3,1.31c-0.75,0-1.3-0.56-1.3-1.31c0-0.75,0.55-1.31,1.3-1.31
	C97.9,37.14,98.44,37.69,98.44,38.44z M97.87,38.44c0-0.47-0.31-0.79-0.73-0.79c-0.41,0-0.73,0.32-0.73,0.79
	c0,0.47,0.31,0.79,0.73,0.79C97.56,39.23,97.87,38.91,97.87,38.44z"/>
<path class="st1" d="M99.21,37.2v-0.25c0-0.55,0.35-0.91,0.96-0.91c0.15,0,0.28,0.02,0.32,0.03v0.52c-0.04-0.01-0.13-0.03-0.25-0.03
	c-0.28,0-0.47,0.16-0.47,0.45v0.19h0.62v0.48h-0.6v2h-0.61v-2h-0.34V37.2H99.21z"/>
<path class="st1" d="M103.43,36.05h0.02l1.7,3.64h-0.66l-0.32-0.71h-1.46l-0.32,0.71h-0.66L103.43,36.05z M103.97,38.51
	c-0.2-0.46-0.37-0.86-0.52-1.27c-0.15,0.37-0.34,0.83-0.53,1.27H103.97z"/>
<path class="st1" d="M106.22,37.2l0.02,0.32c0,0.09-0.02,0.16-0.02,0.18h0.01c0.1-0.23,0.43-0.56,0.9-0.56c0.59,0,0.86,0.35,0.86,1
	v1.56h-0.61v-1.45c0-0.29-0.07-0.55-0.41-0.55c-0.41,0-0.71,0.33-0.71,0.77v1.23h-0.61V37.2H106.22z"/>
<path class="st1" d="M109.98,39.28c0.65,0.08,0.99,0.27,0.99,0.72c0,0.5-0.51,0.8-1.25,0.8c-0.68,0-1.17-0.22-1.17-0.66
	c0-0.29,0.29-0.52,0.66-0.6c-0.22-0.03-0.37-0.15-0.37-0.33c0-0.15,0.13-0.3,0.37-0.37c-0.35-0.13-0.59-0.43-0.59-0.81
	c0-0.54,0.46-0.9,1.04-0.9c0.15,0,0.29,0.02,0.41,0.06h0.92v0.44h-0.32c-0.11,0-0.12-0.01-0.14-0.02c0.1,0.11,0.16,0.25,0.16,0.41
	c0,0.49-0.38,0.82-0.89,0.87c-0.22,0.02-0.39,0.1-0.39,0.18C109.43,39.2,109.6,39.23,109.98,39.28z M110.37,40.05
	c0-0.21-0.18-0.35-0.67-0.35c-0.33,0-0.57,0.16-0.57,0.36c0,0.23,0.25,0.34,0.6,0.34C110.11,40.4,110.37,40.26,110.37,40.05z
	 M110.16,38.05c0-0.27-0.19-0.47-0.49-0.47c-0.29,0-0.49,0.2-0.49,0.47s0.2,0.46,0.49,0.46C109.96,38.51,110.16,38.31,110.16,38.05z
	"/>
<path class="st1" d="M111.56,36.11h0.61v2.78c0,0.25,0.09,0.34,0.27,0.34c0.1,0,0.19-0.02,0.23-0.04v0.51
	c-0.05,0.02-0.2,0.06-0.4,0.06c-0.4,0-0.71-0.2-0.71-0.74V36.11z"/>
<path class="st1" d="M115.67,38.44c0,0.75-0.55,1.31-1.3,1.31c-0.75,0-1.3-0.56-1.3-1.31c0-0.75,0.55-1.31,1.3-1.31
	C115.12,37.14,115.67,37.69,115.67,38.44z M115.09,38.44c0-0.47-0.31-0.79-0.73-0.79c-0.41,0-0.73,0.32-0.73,0.79
	c0,0.47,0.31,0.79,0.73,0.79C114.78,39.23,115.09,38.91,115.09,38.44z"/>
<path class="st1" d="M116.25,38.04h1.55v0.48h-1.55V38.04z"/>
<path class="st1" d="M119.73,36.05h0.02l1.7,3.64h-0.66l-0.32-0.71h-1.46l-0.32,0.71h-0.66L119.73,36.05z M120.26,38.51
	c-0.2-0.46-0.37-0.86-0.52-1.27c-0.15,0.37-0.34,0.83-0.53,1.27H120.26z"/>
<path class="st1" d="M122.51,37.2l0.02,0.32c0,0.09-0.02,0.16-0.02,0.18h0.01c0.12-0.3,0.44-0.53,0.81-0.55c0.08,0,0.17,0,0.25,0.02
	c0.26,0.06,0.47,0.22,0.55,0.5c0.17-0.29,0.49-0.53,0.85-0.53c0.58,0,0.87,0.35,0.87,1v1.56h-0.61v-1.46c0-0.29-0.08-0.54-0.39-0.54
	c-0.48,0-0.64,0.44-0.64,0.88v1.12h-0.61v-1.46c0-0.28-0.06-0.54-0.38-0.54c-0.47,0-0.65,0.44-0.65,0.88v1.12h-0.61V37.2H122.51z"/>
<path class="st1" d="M128.88,38.3c0,0.11-0.01,0.22-0.01,0.27h-1.74c0.02,0.42,0.31,0.67,0.77,0.67c0.35,0,0.71-0.1,0.88-0.21v0.53
	c-0.17,0.09-0.51,0.19-0.93,0.19c-0.83,0-1.36-0.54-1.36-1.31c0-0.75,0.54-1.31,1.24-1.31C128.49,37.14,128.88,37.68,128.88,38.3z
	 M127.73,37.62c-0.36,0-0.57,0.28-0.6,0.59h1.16C128.3,37.9,128.1,37.62,127.73,37.62z"/>
<path class="st1" d="M129.57,37.2h0.56c0,0.1,0.01,0.2,0.01,0.29c0,0.08,0,0.15,0,0.17c0.15-0.3,0.41-0.53,0.76-0.53
	c0.07,0,0.14,0.01,0.15,0.01v0.59c-0.02,0-0.07-0.02-0.15-0.02c-0.43,0-0.72,0.43-0.72,0.9v1.07h-0.61V37.2z"/>
<path class="st1" d="M131.93,36.14c0.21,0,0.35,0.13,0.35,0.34c0,0.2-0.14,0.34-0.35,0.34c-0.21,0-0.35-0.13-0.35-0.34
	C131.58,36.28,131.72,36.14,131.93,36.14z M132.24,37.2v2.49h-0.61V37.2H132.24z"/>
<path class="st1" d="M134.3,39.22c0.32,0,0.58-0.13,0.71-0.21v0.55c-0.12,0.06-0.38,0.19-0.77,0.19c-0.78,0-1.31-0.56-1.31-1.31
	c0-0.75,0.53-1.31,1.31-1.31c0.39,0,0.63,0.12,0.76,0.19v0.56c-0.15-0.1-0.4-0.21-0.69-0.21c-0.45,0-0.76,0.31-0.76,0.78
	C133.54,38.91,133.85,39.22,134.3,39.22z"/>
<path class="st1" d="M135.7,37.31c0.14-0.07,0.47-0.18,0.9-0.18c0.74,0,1.1,0.35,1.1,0.97v1.58h-0.55l-0.01-0.26
	c0-0.11,0.01-0.19,0.01-0.19h-0.01c-0.04,0.11-0.31,0.51-0.82,0.51c-0.44,0-0.79-0.26-0.79-0.74c0-0.61,0.6-0.91,1.57-0.78v-0.09
	c0-0.36-0.23-0.49-0.59-0.49c-0.33,0-0.64,0.11-0.8,0.21V37.31z M137.07,38.59c-0.68-0.11-0.97,0.08-0.97,0.37
	c0,0.19,0.13,0.32,0.34,0.32C136.81,39.28,137.07,38.94,137.07,38.59z"/>
<path class="st1" d="M139.07,37.2l0.02,0.32c0,0.09-0.02,0.16-0.02,0.18h0.01c0.1-0.23,0.43-0.56,0.9-0.56c0.59,0,0.86,0.35,0.86,1
	v1.56h-0.61v-1.45c0-0.29-0.07-0.55-0.41-0.55c-0.41,0-0.71,0.33-0.71,0.77v1.23h-0.61V37.2H139.07z"/>
<path class="st1" d="M80.35,42.85c-0.22-0.11-0.58-0.26-1.02-0.26c-0.77,0-1.29,0.56-1.29,1.28c0,0.72,0.52,1.28,1.27,1.28
	c0.48,0,0.84-0.14,1.06-0.25v0.58c-0.15,0.08-0.56,0.25-1.09,0.25c-1.08,0-1.88-0.8-1.88-1.86c0-1.05,0.8-1.86,1.9-1.86
	c0.52,0,0.9,0.17,1.05,0.25V42.85z"/>
<path class="st1" d="M82.69,45.66l-0.02-0.31c0-0.1,0.02-0.16,0.02-0.18h-0.01c-0.1,0.23-0.42,0.56-0.89,0.56
	c-0.58,0-0.86-0.35-0.86-1v-1.56h0.61v1.45c0,0.29,0.06,0.55,0.4,0.55c0.4,0,0.69-0.33,0.69-0.77v-1.23h0.6v2.49H82.69z"/>
<path class="st1" d="M84.11,42.08h0.61v2.78c0,0.25,0.09,0.34,0.27,0.34c0.1,0,0.19-0.02,0.23-0.04v0.51
	c-0.05,0.02-0.2,0.06-0.4,0.06c-0.4,0-0.71-0.2-0.71-0.74V42.08z"/>
<path class="st1" d="M85.83,43.17v-0.75h0.59v0.75h0.71v0.48h-0.71v1.14c0,0.31,0.16,0.41,0.34,0.41c0.15,0,0.32-0.05,0.45-0.1v0.51
	c-0.11,0.06-0.33,0.11-0.6,0.11c-0.38,0-0.76-0.18-0.79-0.72c0-0.08-0.01-0.16-0.01-0.25v-1.1h-0.38v-0.48H85.83z"/>
<path class="st1" d="M89.47,45.66l-0.02-0.31c0-0.1,0.02-0.16,0.02-0.18h-0.01c-0.1,0.23-0.42,0.56-0.89,0.56
	c-0.58,0-0.86-0.35-0.86-1v-1.56h0.61v1.45c0,0.29,0.06,0.55,0.4,0.55c0.4,0,0.69-0.33,0.69-0.77v-1.23h0.6v2.49H89.47z"/>
<path class="st1" d="M90.88,43.17h0.56c0,0.1,0.01,0.2,0.01,0.29c0,0.08,0,0.15,0,0.17c0.15-0.3,0.41-0.53,0.76-0.53
	c0.07,0,0.14,0.01,0.15,0.01v0.59c-0.02,0-0.07-0.02-0.15-0.02c-0.43,0-0.72,0.43-0.72,0.9v1.07h-0.61V43.17z"/>
<path class="st1" d="M95.14,44.27c0,0.11-0.01,0.22-0.01,0.27h-1.74c0.02,0.42,0.31,0.67,0.77,0.67c0.35,0,0.71-0.1,0.88-0.21v0.53
	c-0.17,0.09-0.51,0.19-0.93,0.19c-0.83,0-1.36-0.54-1.36-1.31c0-0.75,0.54-1.31,1.24-1.31C94.75,43.11,95.14,43.65,95.14,44.27z
	 M93.99,43.59c-0.36,0-0.57,0.28-0.6,0.59h1.16C94.56,43.87,94.36,43.59,93.99,43.59z"/>
<path class="st1" d="M99.66,43.84c0.03,0.42-0.03,0.82-0.27,1.19l0.6,0.62h-0.68l-0.26-0.27c-0.26,0.22-0.6,0.34-0.99,0.34
	c-0.83,0-1.29-0.44-1.29-0.98c0-0.48,0.37-0.78,0.73-0.96c-0.24-0.26-0.4-0.5-0.4-0.88c0-0.47,0.41-0.89,0.97-0.89
	c0.53,0,0.96,0.39,0.96,0.85c0,0.57-0.46,0.87-0.75,1.01l0.73,0.75c0.12-0.24,0.16-0.51,0.14-0.78H99.66z M97.8,44.1
	c-0.22,0.11-0.46,0.3-0.46,0.59c0,0.31,0.29,0.54,0.72,0.54c0.23,0,0.45-0.08,0.62-0.23L97.8,44.1z M97.94,43.54
	c0.22-0.11,0.55-0.32,0.55-0.62c0-0.23-0.2-0.42-0.44-0.42c-0.24,0-0.44,0.18-0.44,0.42C97.61,43.16,97.74,43.32,97.94,43.54z"/>
<path class="st1" d="M103.92,45.66v-1.55h-1.62v1.55h-0.63v-3.58h0.63v1.51h1.62v-1.51h0.63v3.58H103.92z"/>
<path class="st1" d="M105.76,42.11c0.21,0,0.35,0.13,0.35,0.34c0,0.2-0.14,0.34-0.35,0.34c-0.21,0-0.35-0.13-0.35-0.34
	C105.4,42.25,105.54,42.11,105.76,42.11z M106.06,43.17v2.49h-0.61v-2.49H106.06z"/>
<path class="st1" d="M107.55,44.63c-0.45-0.14-0.77-0.33-0.77-0.8c0-0.44,0.37-0.73,0.92-0.73c0.31,0,0.59,0.08,0.75,0.15v0.53
	c-0.17-0.09-0.42-0.17-0.64-0.18c-0.08,0-0.17,0-0.24,0.02c-0.12,0.03-0.23,0.1-0.23,0.23c0,0.16,0.15,0.24,0.45,0.33
	c0.55,0.17,0.81,0.36,0.81,0.8c0,0.47-0.38,0.73-0.97,0.73c-0.35,0-0.64-0.08-0.83-0.16v-0.54c0.24,0.12,0.58,0.22,0.82,0.22
	c0.22,0,0.42-0.07,0.42-0.26C108.04,44.8,107.87,44.73,107.55,44.63z"/>
<path class="st1" d="M109.35,43.17v-0.75h0.59v0.75h0.71v0.48h-0.71v1.14c0,0.31,0.16,0.41,0.34,0.41c0.15,0,0.32-0.05,0.45-0.1
	v0.51c-0.11,0.06-0.33,0.11-0.6,0.11c-0.38,0-0.76-0.18-0.79-0.72c0-0.08-0.01-0.16-0.01-0.25v-1.1h-0.38v-0.48H109.35z"/>
<path class="st1" d="M113.73,44.41c0,0.75-0.55,1.31-1.3,1.31c-0.75,0-1.3-0.56-1.3-1.31c0-0.75,0.55-1.31,1.3-1.31
	C113.18,43.11,113.73,43.66,113.73,44.41z M113.16,44.41c0-0.47-0.31-0.79-0.73-0.79c-0.41,0-0.73,0.32-0.73,0.79
	c0,0.47,0.31,0.79,0.73,0.79C112.85,45.2,113.16,44.88,113.16,44.41z"/>
<path class="st1" d="M114.41,43.17h0.56c0,0.1,0.01,0.2,0.01,0.29c0,0.08,0,0.15,0,0.17c0.15-0.3,0.41-0.53,0.76-0.53
	c0.07,0,0.14,0.01,0.15,0.01v0.59c-0.02,0-0.07-0.02-0.15-0.02c-0.43,0-0.72,0.43-0.72,0.9v1.07h-0.61V43.17z"/>
<path class="st1" d="M116.29,46.24c0.05,0.01,0.15,0.04,0.28,0.04c0.36,0,0.54-0.27,0.71-0.64l-1.03-2.47h0.66l0.32,0.88
	c0.12,0.33,0.25,0.67,0.36,1c0.09-0.21,0.26-0.76,0.36-1l0.31-0.88h0.66l-0.97,2.42c-0.28,0.71-0.59,1.1-1.08,1.2
	c-0.1,0.02-0.2,0.02-0.3,0.02c-0.12,0-0.23-0.02-0.28-0.04V46.24z"/>
<path class="st1" d="M22,23.15h0.19l10.78,22.5H28l-1.78-3.91h-8.28l-1.72,3.91h-4.96L22,23.15z M24.8,38.42
	c-1.02-2.31-2-4.65-2.68-6.59c-0.65,1.54-1.82,4.5-2.74,6.59H24.8z"/>
<path class="st1" d="M44.64,23.15h0.19l10.77,22.5h-4.96l-1.78-3.91h-8.28l-1.72,3.91h-4.96L44.64,23.15z M47.44,38.42
	c-1.02-2.31-2-4.65-2.68-6.59c-0.65,1.54-1.81,4.5-2.74,6.59H47.44z"/>
<path class="st1" d="M72.22,28.94c-1.32-0.68-3.42-1.54-6.13-1.54c-4.49,0-7.33,3.23-7.33,7.17c0,3.97,2.8,7.17,7.17,7.17
	c2.86,0,5.05-0.83,6.43-1.54v4.4c-1.14,0.62-3.66,1.48-6.77,1.48c-6.68,0-11.58-5.02-11.58-11.51c0-6.47,4.9-11.52,11.73-11.52
	c3.11,0,5.33,0.92,6.46,1.54V28.94z"/>
<polygon class="st0" points="24.17,20.74 26.92,26.48 31,17.92 "/>
<polygon class="st0" points="32.38,17.35 27.47,27.64 30.01,32.93 38.68,14.75 "/>
<polygon class="st0" points="40.06,14.18 30.56,34.09 33.42,40.06 47.17,11.25 "/>
</svg>
